<?xml version="1.0" encoding="UTF-8"?>
<svg xmlns="http://www.w3.org/2000/svg" xmlns:xlink="http://www.w3.org/1999/xlink" width="1156px" height="800px" viewBox="0 0 1155 800" version="1.1">
<g id="surface1">
<path style=" stroke:none;fill-rule:nonzero;fill:rgb(0%,0%,0%);fill-opacity:1;" d="M 1.054688 0.902344 C -0.753906 2.863281 -0.148438 6.027344 2.257812 6.027344 C 3.460938 6.027344 4.515625 7.382812 4.515625 9.039062 C 4.515625 10.695312 5.417969 12.050781 6.472656 12.050781 C 7.375 12.050781 9.9375 12.503906 12.042969 12.804688 L 15.804688 13.710938 L 12.195312 12.050781 C 7.527344 9.945312 8.582031 9.191406 17.011719 8.285156 C 22.882812 7.683594 26.042969 8.585938 37.9375 14.3125 C 52.988281 21.394531 62.324219 27.570312 60.667969 29.078125 C 60.214844 29.679688 60.515625 30.132812 61.417969 30.132812 C 63.226562 30.132812 78.429688 45.648438 77.375 46.554688 C 77.074219 46.855469 73.914062 44.292969 70.453125 40.980469 C 66.988281 37.515625 63.074219 34.652344 61.871094 34.652344 C 60.667969 34.652344 60.214844 34.199219 60.667969 33.597656 C 61.269531 33.144531 60.214844 31.941406 58.257812 30.886719 C 56.453125 29.980469 52.988281 27.871094 50.429688 26.367188 C 46.214844 23.804688 46.367188 23.953125 51.183594 28.324219 C 54.042969 30.886719 56.902344 32.996094 57.503906 33.144531 C 59.160156 33.144531 72.257812 51.527344 76.023438 58.757812 C 77.828125 62.523438 81.894531 72.917969 84.902344 82.109375 L 90.324219 98.53125 L 90.324219 395.480469 C 90.324219 702.824219 90.171875 707.195312 84.453125 722.109375 C 79.9375 733.859375 72.558594 746.96875 68.945312 750.132812 C 66.539062 752.089844 63.980469 754.953125 63.074219 756.609375 C 61.71875 759.171875 61.871094 759.320312 64.28125 758.117188 C 71.054688 754.5 87.160156 729.339844 87.460938 721.957031 C 87.460938 719.847656 87.761719 720 88.667969 722.410156 C 89.417969 724.21875 89.117188 727.382812 87.914062 730.246094 C 86.859375 732.957031 86.558594 735.214844 87.3125 735.214844 C 89.269531 735.214844 94.238281 718.191406 96.644531 703.425781 C 98.152344 693.183594 98.601562 632.316406 98.601562 390.207031 C 98.601562 107.117188 98.453125 89.039062 95.894531 79.246094 C 91.828125 62.976562 82.195312 46.554688 69.398438 33.597656 C 59.460938 23.652344 56 21.242188 36.730469 11.75 C 16.558594 1.808594 3.914062 -2.109375 1.054688 0.902344 M 377.851562 7.382812 C 377.851562 13.257812 378.453125 15.066406 380.109375 15.066406 C 381.3125 15.066406 382.367188 15.667969 382.367188 16.269531 C 382.367188 16.875 387.183594 18.683594 393.203125 20.1875 C 411.117188 24.859375 426.171875 32.691406 437.011719 43.390625 C 441.675781 47.910156 448.601562 58.757812 454.472656 70.808594 L 461.398438 85.121094 L 461.851562 329.191406 L 462.152344 573.410156 L 457.632812 586.816406 C 452.816406 600.980469 454.925781 602.183594 460.496094 588.324219 C 463.503906 580.640625 464.710938 582.898438 462.300781 591.789062 C 461.546875 594.351562 461.398438 596.609375 462 596.609375 C 462.902344 596.609375 468.023438 582.449219 470.730469 571.75 C 472.238281 565.421875 472.6875 115.40625 471.183594 98.683594 C 467.871094 64.179688 454.472656 39.171875 430.988281 23.652344 C 420.152344 16.421875 389.742188 1.957031 382.367188 0.453125 L 377.851562 -0.453125 Z M 1104.195312 21.394531 C 1096.515625 26.816406 1080.558594 43.992188 1074.539062 53.332031 C 1066.558594 65.6875 1061.441406 83.011719 1059.484375 103.953125 C 1057.527344 125.949219 1059.183594 683.84375 1061.289062 699.660156 C 1063.097656 712.316406 1065.054688 721.507812 1066.558594 722.863281 C 1067.160156 723.464844 1067.3125 722.5625 1066.859375 720.902344 C 1066.410156 719.246094 1065.65625 715.179688 1065.054688 711.863281 C 1064.601562 708.550781 1063.851562 703.425781 1063.398438 700.566406 C 1062.945312 697.703125 1062.195312 638.492188 1061.742188 569.039062 C 1061.140625 470.960938 1061.441406 442.335938 1062.796875 440.679688 C 1064.300781 438.871094 1064.152344 438.417969 1061.894531 438.417969 C 1059.183594 438.265625 1059.183594 438.265625 1061.742188 436.308594 C 1063.398438 435.105469 1063.851562 433.746094 1062.945312 433.296875 C 1061.140625 432.089844 1061.441406 396.535156 1063.246094 393.523438 C 1064 392.46875 1063.851562 391.714844 1062.945312 391.714844 C 1062.042969 391.714844 1061.289062 390.054688 1061.289062 387.949219 C 1061.289062 385.839844 1061.894531 384.179688 1062.496094 384.179688 C 1063.097656 384.179688 1063.546875 379.960938 1063.398438 374.6875 C 1063.246094 368.058594 1062.644531 365.5 1061.289062 365.800781 C 1059.9375 366.101562 1059.785156 365.347656 1060.6875 363.539062 C 1062.496094 359.625 1062.945312 345.007812 1061.289062 339.285156 C 1060.539062 336.421875 1060.539062 334.464844 1061.441406 334.464844 C 1063.546875 334.464844 1063.097656 328.738281 1060.988281 327.984375 C 1059.484375 327.382812 1059.484375 327.082031 1060.988281 327.082031 C 1063.097656 326.929688 1063.546875 320.902344 1061.441406 320.902344 C 1060.6875 320.902344 1060.839844 319.246094 1061.742188 317.136719 C 1062.796875 315.027344 1064 313.371094 1064.601562 313.371094 C 1065.355469 313.371094 1065.957031 360.980469 1066.257812 419.132812 C 1066.410156 477.4375 1066.710938 429.078125 1066.710938 311.863281 C 1066.859375 194.652344 1066.410156 103.351562 1065.65625 109.226562 C 1065.054688 114.953125 1064.453125 135.292969 1064.453125 154.425781 C 1064.453125 173.410156 1064.453125 192.691406 1064.300781 196.910156 C 1064.300781 202.9375 1063.699219 204.894531 1062.042969 204.894531 C 1060.839844 204.894531 1059.785156 204.144531 1059.785156 203.390625 C 1059.785156 202.484375 1060.539062 201.882812 1061.289062 201.882812 C 1062.195312 201.882812 1062.796875 201.128906 1062.796875 200.226562 C 1062.796875 199.472656 1062.195312 199.171875 1061.289062 199.625 C 1060.386719 200.226562 1059.785156 198.417969 1059.785156 195.253906 C 1059.785156 191.941406 1060.539062 189.832031 1061.742188 189.832031 C 1062.945312 189.832031 1062.796875 189.226562 1061.289062 188.324219 C 1059.332031 186.96875 1059.332031 186.816406 1061.289062 186.816406 C 1063.246094 186.816406 1063.246094 186.667969 1061.289062 185.3125 C 1059.332031 183.953125 1059.332031 183.652344 1061.289062 182.296875 C 1062.496094 181.542969 1062.945312 180.789062 1062.042969 180.789062 C 1059.9375 180.789062 1059.632812 172.957031 1061.742188 170.546875 C 1062.644531 169.339844 1062.796875 168.136719 1061.894531 167.53125 C 1059.9375 166.027344 1059.484375 158.644531 1061.289062 157.4375 C 1063.398438 156.082031 1063.246094 151.109375 1060.988281 150.359375 C 1059.9375 149.90625 1059.785156 149 1060.6875 147.496094 C 1062.496094 144.632812 1062.496094 142.976562 1060.839844 139.660156 C 1060.085938 138.003906 1060.085938 136.195312 1060.839844 135.140625 C 1062.34375 133.183594 1062.195312 123.691406 1060.839844 119.925781 C 1060.238281 118.570312 1060.386719 117.515625 1061.140625 117.515625 C 1061.742188 117.515625 1062.042969 115.855469 1061.589844 113.746094 C 1061.140625 111.1875 1061.589844 109.980469 1062.945312 109.980469 C 1064.601562 109.980469 1064.601562 109.679688 1062.796875 108.472656 C 1060.839844 107.117188 1060.839844 106.96875 1062.796875 106.96875 C 1064.753906 106.96875 1064.753906 106.816406 1062.796875 105.460938 C 1061.589844 104.707031 1061.289062 103.953125 1062.042969 103.953125 C 1063.097656 103.953125 1063.398438 101.695312 1063.097656 98.683594 C 1062.644531 94.914062 1063.097656 93.410156 1064.453125 93.410156 C 1066.109375 93.410156 1066.109375 93.105469 1064.300781 91.902344 C 1062.496094 90.847656 1062.496094 90.394531 1064.152344 90.394531 C 1065.203125 90.394531 1065.804688 89.492188 1065.355469 88.136719 C 1064.753906 86.929688 1065.203125 85.574219 1066.109375 84.972656 C 1067.160156 84.367188 1067.011719 83.617188 1065.65625 82.710938 C 1064 81.808594 1064.152344 81.355469 1066.109375 80.601562 C 1067.613281 80 1068.214844 78.492188 1067.761719 76.683594 C 1067.3125 75.179688 1067.761719 73.824219 1068.667969 73.824219 C 1069.417969 73.824219 1069.871094 72.917969 1069.417969 71.863281 C 1068.214844 68.550781 1072.582031 59.8125 1082.515625 45.949219 C 1088.988281 36.910156 1094.410156 31.1875 1103.441406 23.804688 C 1110.816406 17.628906 1111.269531 16.421875 1104.195312 21.394531 M 848.28125 229.304688 C 806.882812 321.355469 772.257812 396.988281 771.503906 397.289062 C 770.601562 397.4375 742.902344 338.078125 709.785156 265.3125 C 676.667969 192.390625 649.417969 133.332031 649.117188 134.085938 C 648.816406 134.839844 650.925781 140.414062 653.9375 146.441406 C 656.796875 152.46875 662.214844 164.820312 666.128906 173.710938 C 669.894531 182.597656 674.257812 192.542969 675.914062 195.554688 C 677.570312 198.570312 678.925781 201.582031 678.925781 202.335938 C 678.925781 203.84375 682.539062 211.828125 696.386719 240.902344 C 702.558594 253.558594 707.527344 264.859375 707.527344 265.914062 C 707.527344 267.117188 707.980469 268.171875 708.730469 268.472656 C 709.785156 268.925781 721.074219 292.277344 721.074219 294.238281 C 721.074219 294.6875 724.839844 302.976562 729.355469 312.46875 C 733.871094 321.957031 737.632812 330.09375 737.632812 330.695312 C 737.632812 331.148438 740.34375 337.324219 743.65625 344.40625 C 746.96875 351.488281 749.675781 357.515625 749.675781 357.964844 C 749.675781 358.265625 751.9375 363.539062 754.644531 369.417969 C 757.355469 375.441406 761.570312 385.085938 763.980469 390.960938 C 766.386719 396.683594 769.246094 402.5625 770.300781 403.765625 C 772.109375 405.726562 772.257812 405.726562 771.355469 403.316406 C 770.601562 401.355469 771.203125 400.753906 773.613281 400.753906 C 775.417969 400.753906 777.226562 399.546875 777.828125 398.042969 C 779.632812 392.617188 789.417969 369.113281 796.496094 353.144531 C 800.558594 343.953125 803.871094 335.96875 803.871094 335.367188 C 803.871094 334.914062 805.828125 330.246094 808.238281 324.972656 C 810.644531 319.847656 815.160156 309.90625 818.324219 302.824219 C 821.332031 295.742188 826.152344 285.046875 828.859375 279.019531 C 831.71875 272.996094 835.484375 264.558594 837.140625 260.1875 C 838.796875 255.96875 841.503906 249.339844 843.3125 245.574219 C 849.785156 231.863281 881.246094 161.507812 886.214844 149.90625 C 888.925781 143.277344 892.238281 135.742188 893.441406 133.332031 C 902.023438 114.652344 924.300781 62.824219 924 62.371094 C 923.699219 62.070312 889.527344 137.25 848.28125 229.304688 M 558.042969 168.890625 C 554.128906 171.148438 551.117188 179.585938 550.816406 189.378906 C 550.667969 194.199219 550.816406 198.71875 550.96875 199.625 C 551.117188 200.375 551.117188 201.734375 550.96875 202.636719 C 550.667969 203.390625 550.367188 207.308594 550.214844 211.222656 C 549.914062 216.796875 550.367188 218.457031 552.324219 218.90625 C 554.429688 219.511719 554.429688 219.660156 552.171875 219.8125 C 549.914062 219.960938 549.460938 221.316406 549.460938 227.496094 C 549.460938 232.917969 550.214844 235.328125 552.171875 236.382812 C 554.582031 237.890625 554.582031 237.890625 552.171875 238.042969 C 549.914062 238.042969 549.460938 239.398438 549.613281 245.875 C 549.761719 250.246094 550.066406 252.65625 550.515625 251.148438 C 551.570312 246.929688 553.980469 248.285156 553.980469 253.257812 C 553.980469 257.324219 553.675781 257.777344 551.71875 256.121094 C 550.515625 255.066406 549.460938 254.914062 549.460938 255.820312 C 549.460938 256.574219 550.515625 258.078125 551.71875 259.132812 C 552.925781 260.1875 553.527344 261.695312 553.074219 262.449219 C 552.472656 263.351562 551.570312 263.203125 550.816406 261.996094 C 549.914062 260.488281 549.460938 260.488281 549.460938 261.695312 C 549.460938 262.75 550.667969 264.105469 552.023438 265.007812 C 554.429688 266.214844 554.730469 271.335938 555.632812 319.699219 C 556.386719 367.003906 556.539062 363.238281 556.539062 284.746094 C 556.539062 201.28125 556.539062 196.308594 559.246094 192.242188 C 561.957031 188.324219 562.257812 188.171875 564.066406 190.734375 C 565.117188 192.242188 566.023438 192.84375 566.023438 191.941406 C 566.023438 191.1875 567.527344 192.996094 569.332031 195.855469 C 571.289062 198.71875 573.546875 202.035156 574.601562 203.089844 C 575.65625 204.144531 577.011719 206.855469 577.460938 209.113281 C 578.066406 211.375 579.269531 214.085938 580.171875 215.292969 C 581.980469 217.550781 585.441406 226.441406 586.644531 232.015625 C 587.097656 234.125 588.453125 237.136719 589.503906 238.792969 C 590.710938 240.453125 591.613281 242.863281 591.613281 244.21875 C 591.613281 245.574219 592.96875 248.285156 594.773438 250.246094 C 596.429688 252.203125 598.238281 255.667969 598.6875 257.929688 C 599.140625 260.339844 600.042969 262.148438 600.644531 262.148438 C 601.246094 262.148438 602.152344 264.859375 602.753906 268.023438 C 603.203125 271.335938 604.710938 274.953125 605.914062 276.308594 C 607.117188 277.515625 608.171875 279.320312 608.171875 280.375 C 608.171875 281.28125 610.429688 287.003906 613.289062 292.882812 C 616 298.757812 621.269531 310.207031 624.730469 318.191406 C 628.34375 326.328125 632.109375 333.710938 633.160156 334.613281 C 634.367188 335.519531 635.269531 337.628906 635.269531 339.132812 C 635.269531 340.640625 638.882812 349.527344 643.398438 358.871094 C 647.761719 368.210938 651.980469 377.402344 652.582031 379.210938 C 653.03125 381.167969 654.539062 382.675781 655.589844 382.675781 C 656.796875 382.675781 657.398438 383.578125 656.945312 384.632812 C 656.644531 385.6875 660.410156 395.632812 665.375 406.78125 C 670.496094 417.929688 675.914062 430.28125 677.71875 434.199219 C 679.375 438.265625 681.484375 440.980469 682.386719 440.375 C 683.140625 439.925781 683.441406 440.226562 682.839844 441.128906 C 681.484375 443.390625 689.460938 461.167969 691.417969 459.960938 C 692.171875 459.511719 692.472656 459.8125 691.871094 460.714844 C 690.515625 462.976562 698.496094 480.753906 700.453125 479.546875 C 701.355469 479.097656 701.503906 479.398438 700.902344 480.300781 C 699.699219 482.261719 708.882812 503.203125 710.988281 503.203125 C 711.894531 503.203125 712.042969 503.652344 711.589844 504.105469 C 711.140625 504.707031 711.441406 506.515625 712.34375 508.324219 C 713.398438 509.980469 714.300781 512.542969 714.453125 513.746094 C 714.753906 514.953125 715.65625 516.15625 716.558594 516.460938 C 717.3125 516.761719 717.761719 517.664062 717.160156 518.417969 C 716.710938 519.171875 717.160156 519.773438 717.914062 519.773438 C 718.816406 519.773438 719.570312 520.828125 719.570312 522.183594 C 719.570312 523.390625 722.582031 530.921875 726.34375 538.605469 C 730.109375 546.441406 733.417969 553.371094 733.417969 553.972656 C 733.570312 554.726562 734.625 556.082031 735.675781 557.136719 C 736.730469 558.191406 737.632812 560.152344 737.632812 561.207031 C 737.632812 562.410156 742.902344 574.011719 749.375 587.117188 C 757.355469 603.691406 761.71875 610.921875 763.675781 611.074219 C 765.03125 611.222656 766.238281 611.222656 766.238281 610.921875 C 766.238281 610.472656 761.117188 598.71875 756.152344 587.570312 C 741.699219 555.78125 730.257812 530.019531 723.332031 514.5 C 718.96875 504.558594 713.398438 492.050781 710.988281 486.628906 C 708.429688 481.207031 704.214844 471.714844 701.503906 465.535156 C 698.796875 459.359375 688.859375 436.910156 679.375 415.820312 C 669.742188 394.726562 660.710938 374.386719 659.054688 370.621094 C 657.398438 366.855469 650.625 352.089844 644 337.777344 C 630.601562 308.25 616 275.855469 604.410156 249.339844 C 590.109375 216.496094 578.515625 190.734375 572.796875 178.832031 C 566.925781 166.78125 564.515625 165.121094 558.042969 168.890625 "/>
<path style=" stroke:none;fill-rule:nonzero;fill:rgb(0%,0%,0%);fill-opacity:1;" d="M 960.730469 169.191406 C 958.171875 172.203125 948.386719 193.746094 920.539062 256.875 C 906.6875 288.363281 890.582031 324.671875 884.859375 337.476562 C 867.097656 376.949219 860.925781 391.863281 861.980469 393.523438 C 862.582031 394.425781 862.429688 394.726562 861.527344 394.273438 C 860.773438 393.824219 857.761719 398.644531 855.054688 404.972656 C 852.195312 411.300781 847.375 422.148438 844.214844 429.078125 C 837.894531 442.9375 837.894531 442.9375 840 442.9375 C 840.902344 442.9375 841.503906 441.734375 841.503906 440.226562 C 841.503906 438.871094 842.257812 436.609375 843.160156 435.40625 C 844.515625 433.597656 844.667969 433.746094 844.066406 436.460938 C 843.011719 441.128906 843.914062 440.828125 846.625 435.253906 C 848.730469 430.886719 848.730469 430.734375 846.472656 432.542969 C 844.214844 434.351562 844.066406 434.351562 844.96875 431.941406 C 845.570312 430.433594 846.023438 428.777344 846.023438 428.472656 C 846.023438 428.171875 847.226562 427.871094 848.730469 427.871094 C 850.839844 427.871094 850.988281 427.570312 849.03125 426.367188 C 847.074219 425.007812 847.828125 424.257812 850.839844 424.558594 C 851.289062 424.707031 852.195312 423.804688 852.644531 422.449219 C 853.097656 421.242188 852.945312 420.640625 852.042969 421.09375 C 849.9375 422.449219 850.085938 420.640625 852.945312 413.257812 C 854.300781 409.640625 856.410156 406.78125 857.460938 406.78125 C 858.667969 406.78125 859.570312 405.726562 859.570312 404.519531 C 859.570312 401.808594 862.582031 401.507812 862.582031 404.066406 C 862.730469 406.328125 866.945312 399.246094 866.945312 396.988281 C 866.945312 396.082031 866.042969 397.136719 864.988281 399.097656 C 863.632812 401.65625 862.730469 402.109375 861.828125 400.753906 C 861.226562 399.699219 861.375 398.492188 862.128906 397.890625 C 864.238281 396.535156 867.097656 387.644531 865.894531 386.289062 C 865.289062 385.6875 865.589844 385.6875 866.496094 386.140625 C 867.699219 386.894531 873.570312 375.894531 873.871094 372.128906 C 874.171875 369.265625 876.582031 364.59375 877.785156 364.59375 C 879.742188 364.59375 879.589844 365.347656 873.871094 378.457031 C 870.859375 385.085938 868.753906 390.808594 869.054688 391.109375 C 869.355469 391.414062 874.324219 380.714844 880.34375 367.308594 C 886.214844 353.898438 890.882812 342.597656 890.429688 342.296875 C 890.128906 341.84375 889.074219 343.503906 888.171875 345.761719 C 887.269531 348.023438 886.214844 349.527344 885.761719 349.078125 C 884.558594 347.871094 889.527344 338.683594 891.03125 339.585938 C 892.839844 340.640625 902.171875 318.34375 900.816406 316.234375 C 900.214844 315.179688 900.367188 314.878906 901.269531 315.328125 C 902.625 316.082031 910 300.261719 929.570312 255.367188 C 930.773438 252.804688 934.386719 244.820312 937.699219 237.589844 C 941.160156 230.207031 943.871094 224.03125 943.871094 223.578125 C 943.871094 223.277344 946.429688 217.25 949.742188 210.320312 C 952.902344 203.390625 956.066406 196.308594 956.667969 194.5 C 957.871094 190.734375 960.429688 190.28125 960.582031 193.898438 C 960.582031 196.15625 961.03125 196.007812 962.988281 193.144531 C 964.195312 191.335938 965.851562 189.832031 966.601562 189.832031 C 967.203125 189.832031 967.503906 203.238281 967.203125 219.511719 C 966.753906 235.933594 966.152344 373.183594 965.699219 524.59375 L 965.097656 800 L 1059.785156 800 C 1113.074219 800 1154.625 799.398438 1154.625 798.644531 C 1154.625 796.234375 1137.460938 795.480469 1052.710938 794.578125 C 1006.042969 793.972656 967.957031 792.917969 967.957031 792.316406 C 967.957031 790.507812 974.28125 787.195312 976.988281 787.644531 C 978.644531 787.949219 978.796875 787.796875 977.289062 786.742188 C 975.183594 785.386719 974.582031 722.710938 973.226562 373.183594 C 972.773438 238.644531 972.023438 172.203125 970.96875 170.09375 C 969.160156 166.78125 963.140625 166.328125 960.730469 169.191406 M 196 617.25 C 195.851562 674.953125 196.300781 704.785156 197.355469 707.644531 C 198.710938 711.414062 201.117188 713.972656 203.226562 714.125 C 205.03125 714.125 203.828125 707.195312 201.417969 703.578125 C 199.160156 700.261719 198.710938 690.621094 197.503906 615.441406 L 196.152344 531.074219 Z M 381.460938 648.4375 C 381.914062 652.503906 382.367188 657.023438 382.367188 658.53125 C 382.367188 661.242188 385.527344 661.394531 469.675781 661.394531 C 556.238281 661.394531 556.988281 661.394531 556.988281 658.378906 C 556.988281 655.367188 556.386719 655.367188 471.183594 655.667969 C 385.980469 656.121094 385.226562 656.121094 385.675781 653.105469 C 385.980469 651.148438 387.484375 649.945312 389.894531 649.640625 C 393.503906 649.191406 393.503906 649.191406 390.644531 651.300781 C 387.785156 653.410156 387.9375 653.558594 391.851562 652.804688 C 394.109375 652.355469 396.367188 651.449219 396.816406 650.695312 C 397.269531 649.945312 399.375 649.339844 401.632812 649.191406 C 403.894531 649.039062 400.730469 648.136719 394.710938 647.230469 C 388.539062 646.175781 382.96875 644.367188 382.066406 643.164062 C 381.011719 641.65625 380.859375 643.316406 381.460938 648.4375 M 462.601562 712.164062 C 427.980469 712.46875 410.96875 713.21875 410.96875 714.273438 C 410.96875 715.328125 427.074219 715.78125 461.097656 715.632812 C 533.804688 715.328125 530.34375 715.179688 529.289062 717.890625 C 528.839844 719.246094 529.289062 720.152344 530.496094 720.152344 C 531.699219 720.152344 532.902344 719.246094 533.355469 718.042969 C 533.957031 716.535156 531.546875 715.328125 524.625 713.523438 C 519.355469 712.164062 514.839844 711.261719 514.539062 711.414062 C 514.238281 711.714844 490.902344 712.015625 462.601562 712.164062 M 4.515625 791.5625 L 4.515625 798.492188 L 252 798.492188 C 480.214844 798.492188 499.484375 798.34375 500.386719 796.082031 C 500.988281 794.726562 501.140625 793.371094 500.839844 793.070312 C 500.085938 792.316406 100.257812 792.46875 81.289062 793.21875 C 49.074219 794.425781 24.238281 795.632812 15.054688 796.382812 L 5.269531 797.136719 L 14.152344 793.523438 L 23.03125 790.054688 L 16.410156 788.097656 C 12.796875 787.042969 8.582031 785.839844 7.226562 785.535156 C 4.96875 784.785156 4.515625 785.839844 4.515625 791.5625 "/>
</g>
</svg>
